PathFileType	4	(X/Y/Z)	C:\Users\IEUser\Desktop\02761_POST\experimental_data\task.trc
DataRate	CameraRate	NumFrames	NumMarkers	Units	OrigDataRate	OrigDataStartFrame	OrigNumFrames
100.000000	100.000000	4	51	mm	100.000000	0	361
Frame#	Time	C7			CLAV			LANK			LASI			LBHD			LELB			LFHD			LFIN			LFMH			LHEE			LKNE			LMED			LMET			LMIF			LPSI			LSHO			LTAD			LTHAP			LTHI			LTIAD			LTIB			LTOE			LTTU			LWRA			LWRB			RANK			RASI			RBAK			RBHD			RELB			RFHD			RFIN			RFMH			RHEE			RKNE			RMED			RMET			RMIF			RPSI			RSHO			RTAD			RTHAP			RTHI			RTIAD			RTIB			RTOE			RTTU			RWRA			RWRB			STRN			T10			
		X1	Y1	Z1	X2	Y2	Z2	X3	Y3	Z3	X4	Y4	Z4	X5	Y5	Z5	X6	Y6	Z6	X7	Y7	Z7	X8	Y8	Z8	X9	Y9	Z9	X10	Y10	Z10	X11	Y11	Z11	X12	Y12	Z12	X13	Y13	Z13	X14	Y14	Z14	X15	Y15	Z15	X16	Y16	Z16	X17	Y17	Z17	X18	Y18	Z18	X19	Y19	Z19	X20	Y20	Z20	X21	Y21	Z21	X22	Y22	Z22	X23	Y23	Z23	X24	Y24	Z24	X25	Y25	Z25	X26	Y26	Z26	X27	Y27	Z27	X28	Y28	Z28	X29	Y29	Z29	X30	Y30	Z30	X31	Y31	Z31	X32	Y32	Z32	X33	Y33	Z33	X34	Y34	Z34	X35	Y35	Z35	X36	Y36	Z36	X37	Y37	Z37	X38	Y38	Z38	X39	Y39	Z39	X40	Y40	Z40	X41	Y41	Z41	X42	Y42	Z42	X43	Y43	Z43	X44	Y44	Z44	X45	Y45	Z45	X46	Y46	Z46	X47	Y47	Z47	X48	Y48	Z48	X49	Y49	Z49	X50	Y50	Z50	X51	Y51	Z51	

1	0	-2157.96337890625	1295.40234375	-207.4826965332032	-2060.21875	1206.847900390625	-207.4260864257813	-1947.324462890625	59.895565032959	-285.1940002441407	-2113.383056640625	846.245544433594	-315.6655578613282	-2134.5556640625	1429.721435546875	-265.1384277343751	-2188.2734375	1008.527954101563	-490.2373962402345	-2010.469116210938	1449.380493164063	-245.601303100586	-2122.83056640625	792.4512329101565	-679.1677246093751	-1818.815063476563	61.97883224487306	-228.1187438964844	-1987.585083007813	28.61643218994141	-240.2740631103516	-2008.596435546875	457.9541320800782	-318.5500488281251	-1929.284301757813	73.2453079223633	-207.6468200683594	-1842.628540039063	41.14164352416993	-302.5953979492188	-1874.199096679688	84.09989166259767	-261.2985839843751	-2262.430419921875	879.843688964844	-257.0318908691407	-2142.254638671875	1254.717407226563	-349.5092468261719	-1989.656494140625	615.4180908203126	-272.9842529296876	-2015.767822265625	676.8574829101564	-281.0984802246094	-2055.97705078125	560.3886718750001	-385.2233276367189	-1919.890869140625	176.1476745605469	-267.6943359375001	-1971.064453125	255.9591217041016	-353.0231933593751	-1830.67333984375	64.98266601562501	-271.2136840820313	-1948.145141601563	393.4642944335939	-273.4572753906251	-2096.794677734375	817.024108886719	-622.9326171875001	-2162.498779296875	817.5023193359377	-639.2751464843751	-2482.36474609375	101.0852355957032	-143.6618804931641	-2110.3876953125	841.644714355469	-103.7301330566407	-2190.766845703125	1158.585815429688	-92.10560607910158	-2156.4140625	1412.30322265625	-140.1658477783203	-2028.292724609375	988.289489746094	-1.310068964958191	-2001.1455078125	1440.26025390625	-133.3710021972657	-1849.617553710938	766.0774536132814	-20.47835922241211	-2360.6865234375	39.52195358276368	-195.6784210205079	-2521.654296875	111.8545150756836	-191.6519012451172	-2233.21142578125	426.1859130859376	-119.2185897827149	-2446.399658203125	105.8679656982422	-216.1909179687501	-2400.700439453125	31.79417610168458	-117.9231109619141	-2404.0400390625	86.86801147460939	-161.9319458007813	-2260.6728515625	889.0471191406252	-170.9674835205078	-2112.360595703125	1255.872802734375	-61.55131149291994	-2134.57421875	536.2712402343751	-183.3028869628907	-2102.364990234375	659.5977172851564	-157.6805877685547	-2189.11376953125	544.2651367187501	-58.52241134643556	-2111.165283203125	266.2432250976563	-138.296859741211	-2370.81494140625	260.5263977050782	-82.89302062988283	-2372.149169921875	44.82886123657227	-152.5670928955078	-2253.185302734375	336.2608642578126	-176.9149017333985	-1891.5986328125	807.4809570312502	-62.14172744750978	-1894.40966796875	800.629577636719	-1.348870515823364	-2046.65087890625	1019.839965820313	-216.4875793457032	-2236.758056640625	991.3999633789065	-211.2063598632813	
2	0.01	-2146.428466796875	1294.879272460938	-210.6982879638672	-2048.6123046875	1206.411987304688	-210.3432617187501	-1944.773559570313	60.20299148559572	-285.1608886718751	-2101.8828125	845.951354980469	-317.1639709472657	-2124.185791015625	1429.656494140625	-267.6242675781251	-2175.463623046875	1006.220764160156	-492.8020019531251	-2000.251342773438	1449.941528320313	-248.0318298339844	-2109.561767578125	790.761657714844	-681.2026367187501	-1816.932250976563	57.40025329589845	-226.5830535888672	-1986.170166015625	29.90714645385743	-240.5967559814454	-1993.1640625	459.3703918457032	-317.5933837890626	-1926.987915039063	72.2816848754883	-207.0202789306641	-1840.557250976563	38.4404411315918	-301.9615173339844	-1871.928100585938	82.52345275878908	-260.2001953125001	-2250.4951171875	879.629089355469	-257.6505737304688	-2130.642578125	1253.220947265625	-352.7100524902344	-1976.100708007813	615.5995483398439	-270.6178283691407	-2003.794677734375	676.5454101562501	-279.3010253906251	-2042.351806640625	560.0772705078126	-383.9340209960938	-1912.753295898438	176.8412322998047	-266.9716491699219	-1961.239135742188	258.7959289550782	-353.0086975097657	-1828.324829101563	61.40303421020509	-269.6694641113282	-1934.511108398438	394.7615051269532	-271.9093933105469	-2083.3662109375	814.5634765625002	-624.8756713867189	-2149.126953125	814.9187622070315	-640.9178466796876	-2477.816650390625	106.4470596313477	-142.0144348144532	-2097.43408203125	840.314880371094	-105.4911804199219	-2179.0810546875	1157.850952148438	-95.18455505371095	-2146.515625	1411.734375	-142.5100708007813	-2018.881713867188	987.819519042969	-2.863244771957398	-1990.785522460938	1440.443115234375	-135.8126831054688	-1839.972534179688	765.7577514648439	-20.46821594238282	-2360.1201171875	39.33909988403321	-195.2727508544922	-2515.989501953125	119.1765289306641	-190.1416931152344	-2220.935546875	425.1658020019532	-118.4088439941407	-2441.43896484375	110.3037948608399	-214.0568847656251	-2400.072265625	32.39914321899415	-117.8833389282227	-2400.126953125	88.88445281982423	-160.2591857910157	-2247.92724609375	888.499450683594	-171.0485992431641	-2100.82470703125	1255.818603515625	-64.33565521240236	-2121.465576171875	534.3959960937501	-182.5495910644532	-2089.841552734375	658.1790161132814	-158.5128173828125	-2176.664306640625	543.5114135742189	-58.42794036865236	-2111.165283203125	266.2432250976563	-138.296859741211	-2363.04541015625	263.8840026855469	-81.58495330810548	-2371.259521484375	45.25678634643555	-151.5686340332032	-2241.726806640625	335.0430908203126	-174.8108825683594	-1881.45263671875	806.988708496094	-62.71064376831056	-1885.101196289063	800.035827636719	-1.845732808113099	-2034.13427734375	1019.475158691406	-218.4342193603516	-2224.3154296875	990.6138916015627	-211.3954467773438	
3	0.02	-2135.030517578125	1294.358764648438	-213.8436584472657	-2037.105590820313	1206.013916015625	-213.2274322509766	-1942.30419921875	60.47367095947267	-285.1187744140626	-2090.3984375	845.715270996094	-318.5890197753907	-2113.93408203125	1429.565185546875	-270.0710754394532	-2162.7431640625	1003.970764160156	-495.2466430664064	-1990.146606445313	1450.511352539063	-250.4348144531251	-2096.300537109375	789.0682373046877	-683.0363159179689	-1815.138427734375	52.94833755493165	-225.045150756836	-1984.811645507813	31.14374732971192	-240.9069366455079	-1978.055297851563	460.7539367675782	-316.6243286132813	-1924.782836914063	71.33596038818361	-206.4032135009766	-1838.564208984375	35.85924911499024	-301.4125671386719	-1869.661987304688	80.91644287109376	-259.1148681640626	-2238.63525390625	879.4800415039065	-258.2265930175782	-2119.135009765625	1251.814575195313	-355.8494873046876	-1962.934326171875	616.0144042968751	-268.4064941406251	-1992.04541015625	676.5084228515626	-277.5581054687501	-2028.599975585938	560.1157836914064	-382.8414611816407	-1905.86376953125	177.3074951171875	-266.1626281738282	-1951.076171875	261.2443847656251	-352.7833862304688	-1826.041870117188	57.93234634399415	-268.1763916015626	-1921.191162109375	395.8428344726564	-270.3118286132813	-2069.98779296875	812.1279907226565	-626.6128540039064	-2135.802001953125	812.335876464844	-642.3895263671876	-2472.9755859375	111.8229064941407	-140.3778533935547	-2084.649658203125	839.0627441406252	-107.2328491210938	-2167.41455078125	1157.228393554688	-98.08919525146487	-2136.62158203125	1411.114013671875	-144.8470764160157	-2009.549682617188	987.3955078125002	-4.423696041107179	-1980.534301757813	1440.646728515625	-138.2326202392578	-1830.521484375	765.3936157226564	-20.48221588134766	-2359.58251953125	39.11700057983399	-194.9391326904297	-2509.966552734375	126.5271835327149	-188.6400299072266	-2208.4384765625	424.150848388672	-117.4802932739258	-2436.16064453125	114.7217788696289	-211.9007720947266	-2399.359130859375	33.04093551635743	-117.8655014038086	-2396.177001953125	90.74320220947267	-158.6510925292969	-2235.295654296875	888.0594482421877	-171.1150512695313	-2089.32421875	1255.812133789063	-67.12102508544923	-2108.340576171875	532.6001586914064	-181.854736328125	-2077.416748046875	656.8674926757814	-159.3811187744141	-2164.161865234375	542.7979736328126	-58.24980545043947	-2111.165283203125	266.2432250976563	-138.296859741211	-2355.0166015625	267.3511352539063	-80.23220825195314	-2370.280029296875	45.61972045898438	-150.7320709228516	-2229.950439453125	333.8684387207032	-172.5593566894532	-1871.525512695313	806.4617919921877	-63.27932739257814	-1875.980102539063	799.4043579101565	-2.366276979446412	-2021.753662109375	1019.141906738281	-220.3991088867188	-2211.987060546875	989.8519287109377	-211.6476287841797	
4	0.03	-2123.8115234375	1293.857299804688	-216.8743438720704	-2025.711181640625	1205.6982421875	-216.0542144775391	-1939.992919921875	60.67298126220705	-285.0579833984376	-2078.874755859375	845.5761718750002	-319.9040832519532	-2103.83349609375	1429.437255859375	-272.4602050781251	-2150.10498046875	1001.816833496094	-497.4640197753907	-1980.185424804688	1451.10888671875	-252.8030242919922	-2082.930908203125	787.3505859375002	-684.4691162109376	-1813.507202148438	48.7663917541504	-223.5243072509766	-1983.562744140625	32.27964019775391	-241.1914978027344	-1963.552978515625	462.0140991210939	-315.6642150878907	-1922.752807617188	70.42235565185548	-205.805892944336	-1836.724975585938	33.52197265625001	-301.0300903320313	-1867.433715820313	79.28149414062501	-258.0624389648438	-2226.84130859375	879.4526977539065	-258.7664184570313	-2107.7509765625	1250.575927734375	-358.8857116699219	-1950.400024414063	616.7709350585939	-266.4854125976563	-1980.601806640625	676.9109497070314	-275.9488525390626	-2014.626342773438	560.7001953125001	-382.0963745117188	-1899.413940429688	177.3607330322266	-265.1852111816407	-1940.440185546875	262.9744262695313	-352.2042846679688	-1823.890991210938	54.69406890869142	-266.7921447753907	-1908.4345703125	396.519500732422	-268.6382446289063	-2056.58544921875	809.7380371093752	-627.9478149414064	-2122.443115234375	809.726501464844	-643.5170898437501	-2467.47216796875	117.267807006836	-138.7452392578125	-2072.12841796875	837.9411621093752	-108.9489974975586	-2155.737548828125	1156.80810546875	-100.7057571411133	-2126.67822265625	1410.421264648438	-147.1776275634766	-2000.2900390625	987.062683105469	-6.015523433685305	-1970.41357421875	1440.904052734375	-140.6278991699219	-1821.386352539063	764.9266357421876	-20.54764938354493	-2359.032470703125	38.87891387939454	-194.7195434570313	-2503.159912109375	133.9806060791016	-187.1306915283203	-2195.419921875	423.1363830566407	-116.3114166259766	-2430.211669921875	119.140251159668	-209.6986694335938	-2398.39208984375	33.81668090820313	-117.8721694946289	-2392.0556640625	92.35279083251955	-157.1632232666016	-2222.809814453125	887.804626464844	-171.1917724609375	-2077.842529296875	1255.899047851563	-69.91084289550783	-2095.063720703125	530.9459838867189	-181.2208099365235	-2065.080078125	655.7481079101564	-160.2915954589844	-2151.43505859375	542.1566162109376	-57.91004943847658	-2111.165283203125	266.2432250976563	-138.296859741211	-2346.372314453125	270.9987487792969	-78.78343200683595	-2369.0771484375	45.90362930297852	-150.1671752929688	-2217.46826171875	332.7744750976563	-170.0116424560547	-1861.943237304688	805.860290527344	-63.85829162597658	-1867.155517578125	798.6936645507815	-2.937629222869873	-2009.554931640625	1018.874938964844	-222.3861999511719	-2199.79541015625	989.145690917969	-212.0350494384766	
